# xmcd
#
# Track frame offsets:
#	150
#	21108
#	47320
#	69685
#	93863
#	112377
#	136153
#	160400
#	179630
#	200536
#	220604
#	243277
#	260750
#
# Disc length: 3789 seconds
#
# Revision: 1
# Processed by: cddbd v1.5.2PL0 Copyright (c) Steve Scherf et al.
# Submitted via: EZCDAudioConverter 7.1.7.1
#
DISCID=bb0ecb0d
DTITLE=群星 - 真发烧.人声精典 Dts-Es6.1
DYEAR=1900
DGENRE=
TTITLE0=爱上你是我一生的错
TTITLE1=冰雨
TTITLE2=老情歌
TTITLE3=舍不得
TTITLE4=奈何
TTITLE5=爱我的人和我爱的人
TTITLE6=广岛之恋
TTITLE7=思念谁
TTITLE8=放开你的手
TTITLE9=初次尝到寂寞
TTITLE10=我是真的爱你
TTITLE11=同桌的你
TTITLE12=我是个需要很多爱的人
EXTD=
EXTT0=
EXTT1=
EXTT2=
EXTT3=
EXTT4=
EXTT5=
EXTT6=
EXTT7=
EXTT8=
EXTT9=
EXTT10=
EXTT11=
EXTT12=
PLAYORDER=
